<?xml version="1.0" encoding="UTF-8"?>
<svg version="1.1" xmlns="http://www.w3.org/2000/svg" width="334" height="334">
<path d="M0 0 C21.84555933 0.19980695 40.5888132 8.81095133 55.875 24.25 C70.04669008 39.39727744 76.32203218 59.22981037 76.0859375 79.69921875 C75.09480718 96.38324574 69.46083 111.37646607 58.875 124.25 C58.33230469 124.95511719 57.78960937 125.66023438 57.23046875 126.38671875 C46.27936445 139.94903526 29.78379489 148.11396187 12.875 151.25 C8.63513645 151.67869069 4.44718982 151.77527341 0.1875 151.75 C-0.94518311 151.74427979 -2.07786621 151.73855957 -3.24487305 151.73266602 C-23.7931247 151.29888744 -41.66323386 142.78421988 -56.125 128.25 C-67.36609876 115.79595593 -75.10397167 99.1124376 -76.125 82.25 C-76.17785156 81.39277344 -76.23070313 80.53554687 -76.28515625 79.65234375 C-76.55554059 70.91775392 -74.93617271 62.74526248 -73.125 54.25 C-69.60280679 54.83314457 -67.96351658 56.08943974 -65.4375 58.5625 C-57.82134217 65.41985244 -48.55574692 68.15527376 -38.3671875 68.28515625 C-26.44909775 67.58908548 -16.45685075 63.17546176 -8.375 54.3359375 C-0.35639328 44.27258607 1.68850127 33.91103791 0.875 21.25 C-0.44212402 14.03174552 -3.67115459 7.66623455 -7.125 1.25 C-5.28791637 -0.58708363 -2.46883319 0.0331387 0 0 Z " fill="#B6C5DC" transform="translate(167.125,132.75)"/>
<path d="M0 0 C0.89476044 0.00392761 1.78952087 0.00785522 2.71139526 0.01190186 C16.2473334 0.09555676 28.7698537 1.02538954 41.625 5.5625 C43.02449416 6.01378264 44.42423144 6.46431207 45.82421875 6.9140625 C71.81973149 15.64642131 95.1230131 32.734475 111.625 54.5625 C112.02960449 55.08682617 112.43420898 55.61115234 112.85107422 56.15136719 C126.0576238 73.34374584 134.88193137 93.4342852 139.625 114.5625 C139.89207764 115.64253296 139.89207764 115.64253296 140.16455078 116.74438477 C142.08315976 125.50157456 141.99718631 134.31656871 141.99560547 143.23803711 C141.99994174 145.96338197 142.0362509 148.68705351 142.07421875 151.41210938 C142.29059842 185.12124247 129.68717678 218.02720773 107.625 243.5625 C106.79097656 244.53058594 105.95695313 245.49867188 105.09765625 246.49609375 C98.92263774 253.51433251 92.31820451 260.19625241 84.625 265.5625 C83.635 265.5625 82.645 265.5625 81.625 265.5625 C82.88976241 262.01993732 84.31818271 259.48097147 86.75 256.625 C94.14730173 247.29396379 98.90106093 237.31976373 102.98046875 226.23876953 C104.81996851 221.34349445 106.94323691 216.99195318 109.625 212.5 C127.5390302 182.4002632 130.91966395 145.79564149 122.55859375 112.08984375 C113.5874092 78.49351788 92.24735913 49.40678477 62.07421875 31.859375 C33.30811907 15.78105254 0.07702993 10.71227492 -32.00195312 19.26269531 C-65.49660504 28.88968312 -93.01060544 50.09456903 -110.2421875 80.51171875 C-127.71696793 112.82644791 -132.08079771 150.44441187 -121.75 185.75 C-117.86893262 198.3005294 -112.48439858 210.60439232 -104.76953125 221.2734375 C-102.9019968 224.33891421 -101.65429535 227.59755317 -100.375 230.9375 C-95.9755845 242.40755709 -90.16066617 253.77683383 -81.375 262.5625 C-81.375 263.5525 -81.375 264.5425 -81.375 265.5625 C-86.19479744 265.10846111 -88.42081175 263.09203829 -91.875 259.8125 C-92.7928125 258.95140625 -93.710625 258.0903125 -94.65625 257.203125 C-97.25394792 254.68007357 -99.81441149 252.12308851 -102.375 249.5625 C-102.92542969 249.05847656 -103.47585937 248.55445313 -104.04296875 248.03515625 C-120.69330468 232.58330209 -131.44633185 209.35241506 -137.6875 187.875 C-138.05125732 186.62964478 -138.05125732 186.62964478 -138.42236328 185.35913086 C-141.91630991 172.73771164 -142.75115913 160.38553134 -142.6875 147.375 C-142.68567719 146.60214661 -142.68385437 145.82929321 -142.68197632 145.03302002 C-142.63661735 133.61349303 -142.17784787 122.68311096 -139.375 111.5625 C-139.21402832 110.88767578 -139.05305664 110.21285156 -138.88720703 109.51757812 C-134.60924656 91.8797238 -126.88951448 75.32222731 -116.375 60.5625 C-115.62863281 59.5003125 -114.88226563 58.438125 -114.11328125 57.34375 C-97.6860297 34.97010491 -75.83920324 18.39411826 -50.0625 8.25 C-49.28245605 7.93651611 -48.50241211 7.62303223 -47.69873047 7.30004883 C-32.17633579 1.48264966 -16.45530733 -0.16691871 0 0 Z " fill="#3F6EDF" transform="translate(168.375,25.4375)"/>
<path d="M0 0 C3.82484324 3.55394372 7.19463251 7.45963753 10.5625 11.4375 C11.62492824 12.68495695 12.68743034 13.93235101 13.75 15.1796875 C14.28882813 15.81358398 14.82765625 16.44748047 15.3828125 17.10058594 C17.43701263 19.51327873 19.50130507 21.91719457 21.56640625 24.32055664 C23.56158725 26.64360109 25.55258113 28.97021152 27.54296875 31.29736328 C28.50045694 32.41625113 29.45876601 33.53443713 30.41796875 34.65185547 C37.04596725 42.3775582 43.44500428 50.25004063 49.67675781 58.29882812 C50.93853938 59.92098568 52.21320803 61.53201164 53.4921875 63.140625 C75.70769886 91.38910271 97.37270211 124.98197509 93.375 162.4375 C91.00474991 181.08445407 83.56493666 198.95120415 71 213 C70.31292969 213.82886719 69.62585938 214.65773438 68.91796875 215.51171875 C56.28478314 230.37562902 39.49152615 239.55889496 21 245 C20.34249756 245.19722656 19.68499512 245.39445313 19.00756836 245.59765625 C11.7571836 247.49872869 4.38781569 247.39598493 -3.0625 247.375 C-3.75219879 247.37478851 -4.44189758 247.37457703 -5.15249634 247.37435913 C-15.61109015 247.34230039 -25.10683275 246.66946567 -35 243 C-36.05316406 242.62617188 -37.10632813 242.25234375 -38.19140625 241.8671875 C-51.71579628 236.65088381 -64.11665887 228.64359814 -74 218 C-74.66515625 217.31679688 -75.3303125 216.63359375 -76.015625 215.9296875 C-93.42979396 197.50857679 -101.71525405 174.1249654 -101.47265625 149.04858398 C-100.67392811 124.34227293 -87.99801201 100.79119675 -74 81 C-73.2211706 79.88163823 -72.44253235 78.76314333 -71.6640625 77.64453125 C-63.24985437 65.63717444 -54.14682231 54.23634429 -44.625 43.09375 C-42.16084036 40.2044868 -39.76339 37.26481542 -37.375 34.3125 C-33.80418131 29.92204499 -30.06842413 25.72144112 -26.2578125 21.5390625 C-23.10419885 17.99261117 -20.13277854 14.30765051 -17.140625 10.625 C-15.15522356 8.19034714 -13.15961729 5.7686674 -11.125 3.375 C-10.59132813 2.74335937 -10.05765625 2.11171875 -9.5078125 1.4609375 C-6.47828323 -1.47440951 -3.76462367 -1.25487456 0 0 Z M-5 18 C-6.3327188 19.46690559 -7.58913869 21.00322501 -8.8125 22.5625 C-12.56889348 27.25949924 -16.42057149 31.8436531 -20.375 36.375 C-69.45154958 90.25972971 -69.45154958 90.25972971 -87 158 C-84.47160744 180.50269381 -73.51592713 200.50905536 -56.33984375 215.2890625 C-36.71548312 230.26022422 -13.88834224 235.47003081 10.37548828 232.73193359 C31.25053867 229.34614313 51.20936044 216.17017949 63.625 199.3125 C75.67317789 181.25421017 82.45656133 159.70895324 78.3515625 137.984375 C69.80327953 103.64511863 45.48801126 75.18172674 23.09057617 48.8425293 C20.14031812 45.36778092 17.24339017 41.85551155 14.375 38.3125 C10.73638967 33.83772787 6.94300365 29.53718794 3.04296875 25.2890625 C1 23 1 23 -1.13671875 20.2109375 C-1.75160156 19.48132813 -2.36648437 18.75171875 -3 18 C-3.66 18 -4.32 18 -5 18 Z " fill="#C4D0E2" transform="translate(172,57)"/>
<path d="M0 0 C0.42188052 20.8830857 -1.50701436 37.1728403 -15 54 C-15.54398437 54.70898438 -16.08796875 55.41796875 -16.6484375 56.1484375 C-27.62589113 69.69622174 -44.07999862 77.86188343 -61 81 C-65.23986355 81.42869069 -69.42781018 81.52527341 -73.6875 81.5 C-74.82018311 81.49427979 -75.95286621 81.48855957 -77.11987305 81.48266602 C-93.61463031 81.13445769 -110.30793726 75.90128607 -122.65625 64.4609375 C-124.75786834 62.1760385 -126.34346439 59.618395 -128 57 C-129.9482542 54.62167905 -131.98119755 52.31851261 -134 50 C-137 46.4 -137 46.4 -137 43 C-136.14019531 42.89042969 -135.28039062 42.78085938 -134.39453125 42.66796875 C-126.11549851 41.5574769 -118.10874478 39.98082643 -110 38 C-108.28942034 37.59873191 -106.57845176 37.19911965 -104.8671875 36.80078125 C-103.01558813 36.36734497 -101.16402573 35.93375074 -99.3125 35.5 C-98.4455249 35.29850342 -97.5785498 35.09700684 -96.68530273 34.8894043 C-88.2002366 32.88311101 -80.01285732 30.49303298 -71.953125 27.16015625 C-69.66040346 26.25944422 -67.37461427 25.42214877 -65.046875 24.62109375 C-64.32959229 24.37399658 -63.61230957 24.12689941 -62.87329102 23.87231445 C-61.47730039 23.39503005 -60.07950354 22.92297516 -58.67944336 22.45776367 C-54.29338421 20.95485563 -50.1239012 19.1651351 -45.92578125 17.1953125 C-38.56331125 13.74463892 -31.05947877 10.73420135 -23.5 7.75 C-22.15611867 7.21647651 -20.81236811 6.68262353 -19.46875 6.1484375 C-17.01836742 5.17473085 -14.56713653 4.20328337 -12.11523438 3.23339844 C-10.17675198 2.46590525 -8.24839443 1.6716206 -6.33789062 0.83691406 C-4 0 -4 0 0 0 Z " fill="#2756D1" transform="translate(241,203)"/>
<path d="M0 0 C4.57917567 7.49319654 8.30172292 15.04359345 8 24 C6.06532058 24.83986084 4.12714871 25.67168027 2.1875 26.5 C1.10855469 26.9640625 0.02960938 27.428125 -1.08203125 27.90625 C-4 29 -4 29 -7 29 C-7 29.66 -7 30.32 -7 31 C-8.10859375 31.40992188 -9.2171875 31.81984375 -10.359375 32.2421875 C-11.82296029 32.78634101 -13.28649955 33.33061835 -14.75 33.875 C-15.47960937 34.14441406 -16.20921875 34.41382813 -16.9609375 34.69140625 C-19.82480303 35.75884704 -22.60677673 36.7981102 -25.328125 38.1953125 C-27 39 -27 39 -30 39 C-30 39.66 -30 40.32 -30 41 C-30.82242188 41.31453125 -31.64484375 41.6290625 -32.4921875 41.953125 C-37.61222111 43.91600163 -42.73022655 45.87852768 -47.8125 47.9375 C-52.90662301 49.99185125 -58.05129884 51.90573872 -63.2043457 53.80639648 C-66.35226279 54.97468351 -69.43607767 56.19042058 -72.515625 57.53515625 C-76.14181173 59.05961816 -79.79111511 60.27856642 -83.5625 61.375 C-84.63431519 61.68872559 -84.63431519 61.68872559 -85.7277832 62.00878906 C-114.50474604 70.22290884 -114.50474604 70.22290884 -126.375 70.0625 C-127.24898437 70.05347656 -128.12296875 70.04445313 -129.0234375 70.03515625 C-129.67570312 70.02355469 -130.32796875 70.01195312 -131 70 C-131.85121113 68.48910024 -132.6801355 66.96563634 -133.5 65.4375 C-133.9640625 64.59058594 -134.428125 63.74367187 -134.90625 62.87109375 C-136.21457765 59.43673367 -136.18021973 56.64494403 -136 53 C-134.82566406 52.84144531 -133.65132813 52.68289062 -132.44140625 52.51953125 C-118.58540265 50.55003968 -105.37631869 47.49505867 -92.44140625 42.0234375 C-89.55098921 40.81177468 -86.62272209 39.72352174 -83.6875 38.625 C-78.02923398 36.46056294 -72.54528442 34.02014736 -67.0703125 31.4296875 C-65.01064221 30.47060439 -62.93203164 29.55126202 -60.83740234 28.67114258 C-56.65437602 26.88380903 -52.59664114 24.87022755 -48.53125 22.83203125 C-47.73328003 22.43352463 -46.93531006 22.03501801 -46.11315918 21.62443542 C-44.42846339 20.78242634 -42.7442677 19.93941598 -41.06054688 19.09545898 C-38.53662822 17.83085252 -36.01063544 16.57046742 -33.484375 15.31054688 C-31.83308094 14.48487958 -30.1820372 13.65871146 -28.53125 12.83203125 C-27.72365234 12.42783966 -26.91605469 12.02364807 -26.08398438 11.60720825 C-22.21695625 9.66072908 -18.37688819 7.67994219 -14.578125 5.60302734 C-13.89230347 5.22877121 -13.20648193 4.85451508 -12.49987793 4.46891785 C-11.2264022 3.76885956 -9.95695035 3.06140905 -8.69250488 2.34516907 C-5.41048418 0.53670569 -3.87059321 0 0 0 Z " fill="#2A5BD6" transform="translate(232,172)"/>
<path d="M0 0 C0.61048305 29.30318631 -5.2082683 51.35209649 -25.47900391 73.41552734 C-38.18119181 86.6478226 -53.48296597 94.9022409 -71 100 C-71.65460205 100.19577637 -72.3092041 100.39155273 -72.98364258 100.59326172 C-80.23803697 102.49619283 -87.60776963 102.39599736 -95.0625 102.375 C-95.75219879 102.37478851 -96.44189758 102.37457703 -97.15249634 102.37435913 C-107.61109015 102.34230039 -117.10683275 101.66946567 -127 98 C-128.57974609 97.43925781 -128.57974609 97.43925781 -130.19140625 96.8671875 C-141.74400421 92.41139621 -151.53729899 85.88558417 -161 78 C-161.73347656 77.47535156 -162.46695313 76.95070313 -163.22265625 76.41015625 C-165.5444677 74.56801574 -165.91585804 72.74224142 -167 70 C-167.8437413 68.91251121 -168.72113336 67.85055412 -169.625 66.8125 C-172 64 -172 64 -172 62 C-167.48036063 60.2362383 -163.82725807 59.15311262 -159 60 C-157.13530575 61.74007359 -155.64175007 63.65226547 -154.0546875 65.6484375 C-142.7188773 78.62212142 -123.88852347 86.84574791 -107 89 C-82.00284336 90.41556183 -60.20751688 85.01662503 -40.375 69.25 C-35.67382626 65.021193 -31.85951115 59.98377373 -28 55 C-27.05060547 53.82630859 -27.05060547 53.82630859 -26.08203125 52.62890625 C-15.43040123 38.68538175 -11.81343301 20.13819199 -11 3 C-4.5 0 -4.5 0 0 0 Z " fill="#335CCE" transform="translate(264,202)"/>
<path d="M0 0 C8.24201329 12.36301994 7.02458197 30.9444315 4.4375 44.83203125 C4.293125 45.54746094 4.14875 46.26289063 4 47 C3.67 47 3.34 47 3 47 C3.33 38.75 3.66 30.5 4 22 C-7.65402186 26.01778086 -19.06729056 30.37094987 -30.4375 35.125 C-32.63963335 36.04079628 -34.84229282 36.95531902 -37.04496765 37.86981201 C-38.45367424 38.45473527 -39.86221729 39.04005257 -41.27058411 39.62579346 C-49.20205871 42.92203757 -57.15460202 46.10904626 -65.2421875 49.00390625 C-67.00377058 49.64017209 -68.75975622 50.29230496 -70.5078125 50.96484375 C-84.83562234 56.41992731 -99.65756829 59.70618057 -114.68823242 62.54101562 C-117.79841598 63.15851959 -120.88227252 63.87781758 -123.96630859 64.61401367 C-127.02340364 65.19423783 -129.89730735 65.13202947 -133 65 C-129.56063777 71.72918698 -124.86702853 77.24900261 -120 83 C-123 83 -123 83 -125.26953125 80.76171875 C-139.57557483 63.46700862 -139.57557483 63.46700862 -139 55 C-137 58 -137 58 -136 60 C-129.18946084 60.22686793 -122.96616093 59.6875764 -116.3125 58.25 C-115.4452832 58.06880615 -114.57806641 57.8876123 -113.68457031 57.70092773 C-97.46005532 54.24581769 -81.23361951 49.87331283 -66 43.25 C-62.66558502 41.86066042 -59.28970854 40.6774857 -55.875 39.5 C-50.68287801 37.6907982 -45.89219601 35.58355581 -41.0859375 32.91796875 C-39 32 -39 32 -35 32 C-35 31.34 -35 30.68 -35 30 C-31.9216662 28.65490586 -28.83659075 27.32602447 -25.75 26 C-24.87730469 25.6184375 -24.00460938 25.236875 -23.10546875 24.84375 C-22.26113281 24.4828125 -21.41679687 24.121875 -20.546875 23.75 C-19.77182617 23.41484375 -18.99677734 23.0796875 -18.19824219 22.734375 C-16 22 -16 22 -12 22 C-12 21.34 -12 20.68 -12 20 C-9.8765984 19.16260219 -7.7512272 18.33019717 -5.625 17.5 C-4.44164062 17.0359375 -3.25828125 16.571875 -2.0390625 16.09375 C1 15 1 15 3 15 C2.7834375 14.25234375 2.566875 13.5046875 2.34375 12.734375 C1.92609375 11.25710937 1.92609375 11.25710937 1.5 9.75 C1.08234375 8.28820312 1.08234375 8.28820312 0.65625 6.796875 C0 4 0 4 0 0 Z " fill="#B0C0DD" transform="translate(237,181)"/>
<path d="M0 0 C0.89476044 0.00392761 1.78952087 0.00785522 2.71139526 0.01190186 C16.2473334 0.09555676 28.7698537 1.02538954 41.625 5.5625 C43.02449416 6.01378264 44.42423144 6.46431207 45.82421875 6.9140625 C67.85674777 14.31518402 86.02202494 27.58842551 102.625 43.5625 C102.295 44.2225 101.965 44.8825 101.625 45.5625 C100.84898437 44.81226563 100.07296875 44.06203125 99.2734375 43.2890625 C70.87334038 16.20295984 35.79860464 1.50949789 -3.54296875 2.34375 C-41.74586398 3.58834668 -75.76125099 18.82387431 -102.375 46.5625 C-130.89425426 78.23071609 -142.07963043 117.82857541 -140.60888672 159.81542969 C-138.84268514 188.11152765 -126.44839479 217.80557522 -108.375 239.5625 C-107.74980469 240.3153125 -107.12460938 241.068125 -106.48046875 241.84375 C-105.13275013 243.43449985 -103.75793343 245.00226742 -102.375 246.5625 C-102.705 247.2225 -103.035 247.8825 -103.375 248.5625 C-119.18983441 232.6790546 -130.20171657 212.81271489 -136.75 191.4375 C-136.9766333 190.69975342 -137.2032666 189.96200684 -137.43676758 189.2019043 C-141.41719182 175.26967099 -142.90615996 161.55386379 -142.75 147.125 C-142.74567963 146.36213684 -142.74135925 145.59927368 -142.73690796 144.81329346 C-142.66183951 133.4878786 -142.15202496 122.5806557 -139.375 111.5625 C-139.21402832 110.88767578 -139.05305664 110.21285156 -138.88720703 109.51757812 C-134.60924656 91.8797238 -126.88951448 75.32222731 -116.375 60.5625 C-115.62863281 59.5003125 -114.88226563 58.438125 -114.11328125 57.34375 C-97.6860297 34.97010491 -75.83920324 18.39411826 -50.0625 8.25 C-49.28245605 7.93651611 -48.50241211 7.62303223 -47.69873047 7.30004883 C-32.17633579 1.48264966 -16.45530733 -0.16691871 0 0 Z " fill="#D7DEF0" transform="translate(168.375,25.4375)"/>
<path d="M0 0 C3.07046186 1.33589571 4.81921203 2.66260612 6.84765625 5.31640625 C7.36513428 5.98978027 7.8826123 6.6631543 8.41577148 7.35693359 C8.95919189 8.08477051 9.5026123 8.81260742 10.0625 9.5625 C10.91533569 10.69292725 10.91533569 10.69292725 11.78540039 11.84619141 C22.01400894 25.57072561 31.11554026 39.90910858 37.8125 55.6875 C38.26641113 56.739375 38.26641113 56.739375 38.72949219 57.8125 C40.6866163 62.5741628 41.55654827 66.86862997 42 72 C45.63 71.01 49.26 70.02 53 69 C52.62746094 67.96359375 52.25492188 66.9271875 51.87109375 65.859375 C51.39267273 64.48977758 50.91483879 63.11997498 50.4375 61.75 C50.0672168 60.72712891 50.0672168 60.72712891 49.68945312 59.68359375 C47.52946239 53.41657839 47.52946239 53.41657839 49 50 C56.0215485 68.84026182 57.94816392 85.09380232 55 105 C54.67 105 54.34 105 54 105 C54.33 96.42 54.66 87.84 55 79 C51.37 79.99 47.74 80.98 44 82 C44.103125 83.753125 44.20625 85.50625 44.3125 87.3125 C44.3125 106.20149174 36.07335979 123.18407611 25 138 C24.44570312 138.7425 23.89140625 139.485 23.3203125 140.25 C10.4757448 156.09802383 -10.95484542 166.74492011 -31 169 C-54.99209555 170.49191067 -76.96727949 165.31455605 -95.421875 149.0390625 C-98.33103232 146.41021461 -101.1779634 143.72196438 -104 141 C-103.505 140.01 -103.505 140.01 -103 139 C-102.53851563 139.49628906 -102.07703125 139.99257813 -101.6015625 140.50390625 C-87.47301661 155.21881472 -67.54307177 165.48899936 -46.9453125 166.23828125 C-21.6037072 166.72666803 -0.44595847 159.8932964 18.25 142.125 C34.18888824 125.3745594 41.63963756 103.75503747 41.2734375 80.953125 C40.17582199 52.63247129 19.72095337 25.85964926 2.8984375 4.4765625 C1 2 1 2 0 0 Z " fill="#D6DEEF" transform="translate(209,123)"/>
<path d="M0 0 C2.765625 0.08984375 2.765625 0.08984375 6 1 C7.61021657 3.26475117 8.65591835 5.06754598 9.75 7.5625 C10.19811035 8.52530884 10.19811035 8.52530884 10.65527344 9.50756836 C12.68399187 13.97719466 14.11155996 18.20068172 15 23 C15.53565989 25.33471962 16.07776293 27.66796681 16.625 30 C17.08405302 31.99983494 17.54263238 33.99977894 18 36 C16.73160474 36.50615298 15.46016898 37.00469099 14.1875 37.5 C13.47980469 37.7784375 12.77210938 38.056875 12.04296875 38.34375 C10 39 10 39 7 39 C6.8040625 38.175 6.608125 37.35 6.40625 36.5 C4.34566982 28.54189722 1.6063576 21.64698539 -2.26953125 14.41992188 C-4.11254818 10.95547211 -5.49707098 7.91083614 -6 4 C-4.02 3.34 -2.04 2.68 0 2 C0 1.34 0 0.68 0 0 Z " fill="#3869D9" transform="translate(244,156)"/>
<path d="M0 0 C16.87164366 6.90022306 30.49531111 32.47437086 37.12792969 48.10449219 C41.14198804 57.88991554 43.95485646 67.6356285 46 78 C46.2626062 79.10456543 46.2626062 79.10456543 46.53051758 80.23144531 C47.12854731 83.7580481 47.18182164 87.23446269 47.203125 90.80078125 C47.20882507 91.55481735 47.21452515 92.30885345 47.22039795 93.08573914 C47.22982353 94.68352877 47.2363722 96.28133763 47.24023438 97.87915039 C47.24981664 100.2668104 47.28080923 102.65356188 47.3125 105.04101562 C47.38307599 115.393661 46.29477896 124.89475336 44 135 C43.78738525 135.9708252 43.57477051 136.94165039 43.35571289 137.94189453 C40.28306368 151.35107378 33.80279159 164.01262788 26.80078125 175.74609375 C24.50342721 179.89727795 22.95708927 184.16607422 21.35546875 188.62109375 C19.50263505 193.23982905 17.1759982 197.54042478 14.765625 201.88842773 C12.93558195 205.19371872 11.30964283 208.45389018 10 212 C11.32 211.01 12.64 210.02 14 209 C14.66 209.33 15.32 209.66 16 210 C14.39801112 211.46072532 12.79332884 212.91849716 11.1875 214.375 C10.29417969 215.18710937 9.40085937 215.99921875 8.48046875 216.8359375 C3.70758123 221 3.70758123 221 0 221 C1.26476241 217.45743732 2.69318271 214.91847147 5.125 212.0625 C12.52230173 202.73146379 17.27606093 192.75726373 21.35546875 181.67626953 C23.19496851 176.78099445 25.31823691 172.42945318 28 167.9375 C45.9140302 137.8377632 49.29466395 101.23314149 40.93359375 67.52734375 C34.18589299 42.25777625 20.80979075 21.24651889 2.08984375 3.1171875 C0 1 0 1 0 0 Z " fill="#D3DCF0" transform="translate(250,70)"/>
<path d="M0 0 C21.97618269 0.20100167 40.40830047 8.89127045 55.875 24.25 C57.96862092 26.52749182 59.92870416 28.84273936 61.875 31.25 C61.545 31.91 61.215 32.57 60.875 33.25 C59.9159375 32.2909375 59.9159375 32.2909375 58.9375 31.3125 C58.24140625 30.62607422 58.24140625 30.62607422 57.53125 29.92578125 C56.33864202 28.7191095 55.17514183 27.48341806 54.03125 26.23046875 C38.17781225 9.34182518 18.48442719 3.61591134 -4.125 2.25 C-3.63580078 2.92482422 -3.63580078 2.92482422 -3.13671875 3.61328125 C3.62642337 13.56846685 5.14165206 24.37052537 3.875 36.25 C1.11288878 48.07236974 -5.58524786 57.55252909 -15.6875 64.25 C-26.02799269 70.28676808 -37.39941731 73.32649502 -49.29296875 70.49609375 C-54.75472262 68.76597296 -59.69842668 66.9388111 -64.125 63.25 C-64.125 62.59 -64.125 61.93 -64.125 61.25 C-61.61808338 62.25186811 -59.11268106 63.25508492 -56.6171875 64.28515625 C-45.45842549 68.66538671 -34.85265307 69.57790332 -23.4921875 65.24609375 C-12.59867746 60.19910056 -5.81903611 52.83689149 -1.08984375 41.84375 C2.86657048 30.50816318 1.51909354 19.1346905 -3.4375 8.41015625 C-4.62742822 5.99987552 -5.85100682 3.61670671 -7.125 1.25 C-5.28791637 -0.58708363 -2.46883319 0.0331387 0 0 Z " fill="#EAEEF3" transform="translate(167.125,132.75)"/>
<path d="M0 0 C0.63742236 30.59627329 0.63742236 30.59627329 -6 44 C-7.35015859 39.94952424 -6.62084998 37.2079832 -6 33 C-6.721875 33.144375 -7.44375 33.28875 -8.1875 33.4375 C-10.79166667 33.95833333 -13.39583333 34.47916667 -16 35 C-14.18489912 24.49558638 -14.18489912 24.49558638 -12.9375 20.125 C-11.45508279 14.54550847 -11.33247235 8.73952273 -11 3 C-4.5 0 -4.5 0 0 0 Z " fill="#3F6EDA" transform="translate(264,202)"/>
<path d="M0 0 C1.854987 1.7310151 3.33052303 3.62087127 4.890625 5.62109375 C8.92778721 10.17411558 14.05626255 13.49311235 19 17 C18 19 18 19 15.93359375 19.8515625 C15.10988281 20.10679687 14.28617188 20.36203125 13.4375 20.625 C12.19806641 21.01558594 12.19806641 21.01558594 10.93359375 21.4140625 C10.29550781 21.60742188 9.65742187 21.80078125 9 22 C9.66 23.65 10.32 25.3 11 27 C7.81350206 25.54434981 5.23712991 23.74189282 2.5 21.5625 C-0.8162458 18.93240444 -0.8162458 18.93240444 -4.22265625 16.421875 C-6.53795841 14.56963327 -6.91528347 12.74369474 -8 10 C-8.8437413 8.91251121 -9.72113336 7.85055412 -10.625 6.8125 C-13 4 -13 4 -13 2 C-8.48036063 0.2362383 -4.82725807 -0.84688738 0 0 Z " fill="#3B67DB" transform="translate(105,262)"/>
<path d="M0 0 C1.55470162 2.60720756 2.69518601 4.9028477 3.8125 7.6875 C4.12380859 8.39583984 4.43511719 9.10417969 4.75585938 9.83398438 C6.52267198 14.03938669 7.37262586 17.36044266 7 22 C7.66 22 8.32 22 9 22 C9 22.99 9 23.98 9 25 C1.33017078 27.85388994 1.33017078 27.85388994 -2 27 C-7.06039445 21.44784308 -11.78085985 11.58942082 -12.13671875 4.13671875 C-12.09160156 3.43160156 -12.04648438 2.72648438 -12 2 C-4.22766398 -1.80996864 -4.22766398 -1.80996864 0 0 Z " fill="#2D5DDA" transform="translate(89,231)"/>
<path d="M0 0 C0.66 0.33 1.32 0.66 2 1 C1.54321462 2.85454862 1.0844894 4.70861949 0.625 6.5625 C0.36976562 7.59503906 0.11453125 8.62757813 -0.1484375 9.69140625 C-1 13 -1 13 -2.08203125 16.1875 C-7.10622785 37.05395054 -1.75100489 59.44365273 8 78 C8.66 78.99 9.32 79.98 10 81 C15.445 80.505 15.445 80.505 21 80 C21 79.01 21 78.02 21 77 C20.34 77 19.68 77 19 77 C19.33 75.68 19.66 74.36 20 73 C21.15037471 74.6009131 22.29514816 76.20585225 23.4375 77.8125 C24.07558594 78.70582031 24.71367188 79.59914063 25.37109375 80.51953125 C27 83 27 83 28 86 C21.565 86.99 21.565 86.99 15 88 C15.99 89.258125 16.98 90.51625 18 91.8125 C21 95.625 21 95.625 21 99 C2.46733511 79.99543855 -6.65551115 56.39810756 -6.48144531 30.06835938 C-6.16293952 19.46399009 -3.38804129 10.01150939 0 0 Z " fill="#E2E7F1" transform="translate(77,176)"/>
<path d="M0 0 C0.33 0 0.66 0 1 0 C-0.5459981 15.15078136 -11.84985818 29.22895397 -23.30957031 38.70581055 C-42.48984249 53.95395434 -64.73092737 59.67927334 -89 58 C-109.86810022 55.17928057 -126.17836812 44.29604209 -141 30 C-140.67 29.34 -140.34 28.68 -140 28 C-139.30777344 28.74443359 -139.30777344 28.74443359 -138.6015625 29.50390625 C-124.47301661 44.21881472 -104.54307177 54.48899936 -83.9453125 55.23828125 C-58.6037072 55.72666803 -37.44595847 48.8932964 -18.75 31.125 C-10.46199336 22.4149971 -3.81094375 11.43283124 0 0 Z " fill="#D3DBEF" transform="translate(246,234)"/>
<path d="M0 0 C7.05682751 7.05682751 8.49517528 23.69408016 9 33 C8.96755142 40.39315368 8.31190445 47.7228548 7 55 C6.67 55 6.34 55 6 55 C6.33 46.42 6.66 37.84 7 29 C1.555 30.485 1.555 30.485 -4 32 C-4.66 28.7 -5.32 25.4 -6 22 C-0.555 20.515 -0.555 20.515 5 19 C4.6390625 17.96359375 4.278125 16.9271875 3.90625 15.859375 C3.4371807 14.48969264 2.96844834 13.11989486 2.5 11.75 C2.26152344 11.06808594 2.02304687 10.38617188 1.77734375 9.68359375 C0.60578713 6.23586997 0 3.68297096 0 0 Z " fill="#BBC8E3" transform="translate(257,173)"/>
<path d="M0 0 C4.79280002 0.80904103 6.13520113 3.25984591 9 7 C5.62189888 6.39676766 3.67744188 5.09807945 1 3 C0.95022579 7.69562266 0.91410479 12.39108863 0.89013672 17.08691406 C0.88013525 18.68134235 0.86652969 20.27575257 0.84912109 21.87011719 C0.82461305 24.17387376 0.81345824 26.47738595 0.8046875 28.78125 C0.78920364 29.83487732 0.78920364 29.83487732 0.77340698 30.90979004 C0.77229469 35.91746921 1.67270305 40.17048205 3 45 C3.4022384 47.32982043 3.70663307 49.65306455 4 52 C-2.55869343 45.44130657 -2.96374277 31.39782905 -3.25 22.5 C-3.21068304 14.83319309 -1.5920902 7.46766118 0 0 Z " fill="#E9EDF3" transform="translate(94,187)"/>
<path d="M0 0 C0.556875 0.70125 1.11375 1.4025 1.6875 2.125 C2.89907369 3.6312808 4.11587354 5.13425574 5.37890625 6.59765625 C9 10.79647436 9 10.79647436 9 13 C4.71 13.66 0.42 14.32 -4 15 C-3.01 16.258125 -2.02 17.51625 -1 18.8125 C2 22.625 2 22.625 2 26 C-2.49490014 21.25880396 -5.77958194 17.16782795 -8 11 C-8.33 10.34 -8.66 9.68 -9 9 C-3.555 8.01 -3.555 8.01 2 7 C2 6.01 2 5.02 2 4 C1.34 4 0.68 4 0 4 C0 2.68 0 1.36 0 0 Z " fill="#BCCAE4" transform="translate(96,249)"/>
<path d="M0 0 C2.28005986 2.8818352 4.00939493 5.79764802 5.6875 9.0625 C9.31283191 15.82251739 13.55171846 22.55171846 19 28 C19 28.99 19 29.98 19 31 C14.14329827 30.58269656 11.54863925 28.1999142 8.1875 24.9375 C7.68541016 24.46505859 7.18332031 23.99261719 6.66601562 23.50585938 C5.43577211 22.34591548 4.21672935 21.17411185 3 20 C6.51716303 20 7.37121748 20.82445585 10 23 C9.67 21.02 9.34 19.04 9 17 C8.01 16.67 7.02 16.34 6 16 C4.39453125 13.41796875 4.39453125 13.41796875 2.8125 10.1875 C2.28269531 9.12917969 1.75289063 8.07085937 1.20703125 6.98046875 C0 4 0 4 0 0 Z " fill="#ADBFEC" transform="translate(68,260)"/>
<path d="M0 0 C4.12211793 0.62249295 7.34165592 2.02149403 11.0625 3.875 C21.40685158 8.66170774 30.21336162 10.24907675 41.5625 10.3125 C42.5201123 10.31813965 43.47772461 10.3237793 44.46435547 10.32958984 C51.15247464 10.26203308 57.4622768 9.39132689 64 8 C64 7.34 64 6.68 64 6 C66.31 6 68.62 6 71 6 C64.08783049 12.91216951 50.19161479 12.48141379 41.125 12.5625 C25.74939156 12.47004162 13.12887156 9.25162338 0 1 C0 0.67 0 0.34 0 0 Z " fill="#C5D0F0" transform="translate(126,272)"/>
<path d="M0 0 C0.70703125 1.59765625 0.70703125 1.59765625 1 4 C-0.36328125 7.05859375 -0.36328125 7.05859375 -2.3125 10.4375 C-4.48245715 14.23602539 -6.4867957 17.89053656 -8 22 C-6.68 21.01 -5.36 20.02 -4 19 C-3.34 19.33 -2.68 19.66 -2 20 C-3.60198888 21.46072532 -5.20667116 22.91849716 -6.8125 24.375 C-7.70582031 25.18710937 -8.59914063 25.99921875 -9.51953125 26.8359375 C-14.29241877 31 -14.29241877 31 -18 31 C-16.73523759 27.45743732 -15.30681729 24.91847147 -12.875 22.0625 C-9.70563742 18.11411342 -7.11858839 14.01568686 -4.625 9.625 C-4.27937012 9.01793213 -3.93374023 8.41086426 -3.57763672 7.78540039 C-2.13931898 5.21204202 -0.93475073 2.8042522 0 0 Z " fill="#E6EBF6" transform="translate(268,260)"/>
<path d="M0 0 C2.64 0 5.28 0 8 0 C5 2 5 2 3 2 C6.78205233 8.89668366 12.07899713 14.89795644 17 21 C16.01 21 15.02 21 14 21 C12.21644792 19.18667243 10.64406274 17.41459971 9.0625 15.4375 C8.61664551 14.8904541 8.17079102 14.3434082 7.71142578 13.77978516 C0 4.16963751 0 4.16963751 0 0 Z " fill="#D1DAEC" transform="translate(100,243)"/>
<path d="M0 0 C2.26210963 3.39316444 3.50832375 6.88113722 4.875 10.6875 C6.93742314 16.33542488 9.22335892 21.66030561 12 27 C12 27.66 12 28.32 12 29 C11.34 29 10.68 29 10 29 C6.59488898 23.07853335 3.65809274 17.63237095 2 11 C1.34 10.01 0.68 9.02 0 8 C-0.25760279 5.30547479 -0.08900053 2.71451625 0 0 Z " fill="#B2C3EC" transform="translate(45,209)"/>
<path d="M0 0 C0.33 0.99 0.66 1.98 1 3 C0.03900391 4.051875 0.03900391 4.051875 -0.94140625 5.125 C-6.02237724 10.6981664 -11.06473217 16.29666069 -16 22 C-16.66 21.67 -17.32 21.34 -18 21 C-12.05669716 13.9497167 -6.11235248 6.90508079 0 0 Z " fill="#ECEFF3" transform="translate(153,70)"/>
<path d="M0 0 C2.33882136 2.95466486 4.12918158 5.97657129 5.875 9.3125 C8.29547811 13.82669168 10.91467232 17.91647807 14 22 C13.67 22.66 13.34 23.32 13 24 C11 22.75 11 22.75 9 21 C9 19.68 9 18.36 9 17 C8.01 16.67 7.02 16.34 6 16 C4.39453125 13.41796875 4.39453125 13.41796875 2.8125 10.1875 C2.28269531 9.12917969 1.75289063 8.07085937 1.20703125 6.98046875 C0 4 0 4 0 0 Z " fill="#C5D2F1" transform="translate(68,260)"/>
<path d="M0 0 C6.4093449 0.03283476 12.38587992 0.76141541 18.625 2.1875 C18.625 2.5175 18.625 2.8475 18.625 3.1875 C10.58287245 3.35427223 2.63896246 2.8341598 -5.375 2.1875 C-5.705 2.8475 -6.035 3.5075 -6.375 4.1875 C-6.705 3.1975 -7.035 2.2075 -7.375 1.1875 C-5.51137108 -0.67612892 -2.49116099 0.01350955 0 0 Z " fill="#EEF1F5" transform="translate(167.375,132.8125)"/>
<path d="M0 0 C2.31 0 4.62 0 7 0 C1.2414304 5.7585696 -10.08655263 6.2206123 -17.84594727 6.27685547 C-21.56755116 6.23828963 -25.28088727 6.14412062 -29 6 C-29 5.67 -29 5.34 -29 5 C-27.24236328 4.92652344 -27.24236328 4.92652344 -25.44921875 4.8515625 C-16.82605967 4.45409306 -8.4482462 3.9166726 0 2 C0 1.34 0 0.68 0 0 Z " fill="#B7C4EB" transform="translate(190,278)"/>
<path d="M0 0 C2 3 2 3 3 5 C8.28 5 13.56 5 19 5 C19 5.66 19 6.32 19 7 C11.06927985 9.24703737 11.06927985 9.24703737 7 8 C5.00211562 7.65421232 3.00240549 7.31856451 1 7 C0.67 4.69 0.34 2.38 0 0 Z " fill="#B8C6E2" transform="translate(98,236)"/>
<path d="M0 0 C2 1 2 1 3.1484375 3.4765625 C4.22668598 7.93793924 3.98726714 11.83217005 3.625 16.375 C3.56828125 17.20644531 3.5115625 18.03789062 3.453125 18.89453125 C3.3127169 20.93044876 3.15782335 22.96535843 3 25 C2.67 25 2.34 25 2 25 C1.93941406 23.865625 1.87882813 22.73125 1.81640625 21.5625 C1.73191506 20.04165865 1.64727149 18.52082575 1.5625 17 C1.52318359 16.25621094 1.48386719 15.51242188 1.44335938 14.74609375 C1.16338273 9.79266082 0.66489429 4.91686531 0 0 Z " fill="#E6E9EF" transform="translate(249,191)"/>
<path d="M0 0 C0.66 0.33 1.32 0.66 2 1 C2 1.66 2 2.32 2 3 C0.783125 2.731875 -0.43375 2.46375 -1.6875 2.1875 C-3.86686693 1.82432666 -3.86686693 1.82432666 -6 2 C-9.02409364 4.27127334 -9.02409364 4.27127334 -11 7 C-11.66 6.67 -12.32 6.34 -13 6 C-6.88651838 -1.76577394 -6.88651838 -1.76577394 0 0 Z " fill="#EEF1F4" transform="translate(172,57)"/>
<path d="M0 0 C2.06547922 3.09821883 3.56243611 6.18449352 5.125 9.5625 C5.66382812 10.71878906 6.20265625 11.87507812 6.7578125 13.06640625 C8 16 8 16 8 18 C7.34 18 6.68 18 6 18 C2.10214991 11.91590189 0.34467627 7.23820173 0 0 Z " fill="#BAC8EE" transform="translate(88,231)"/>
<path d="M0 0 C0.66 0.33 1.32 0.66 2 1 C0.57084149 2.34227046 -0.86862672 3.67357096 -2.3125 5 C-3.11300781 5.7425 -3.91351563 6.485 -4.73828125 7.25 C-7 9 -7 9 -10 9 C-8.55746343 5.63408134 -6.66735273 3.48952921 -4 1 C-3.67 1.66 -3.34 2.32 -3 3 C-2.01 2.01 -1.02 1.02 0 0 Z " fill="#9AB2EB" transform="translate(264,279)"/>
<path d="M0 0 C3.81530628 3.27026253 6.40632712 7.23853564 8 12 C7.67 12.99 7.34 13.98 7 15 C3 8.375 3 8.375 3 5 C2.01 4.67 1.02 4.34 0 4 C0 2.68 0 1.36 0 0 Z " fill="#DAE2F1" transform="translate(229,166)"/>
<path d="M0 0 C2.37948772 0.17625835 3.70225849 0.69719773 5.37890625 2.40234375 C6.62115486 3.90649092 7.81376056 5.45129851 9 7 C5.64404172 6.40072174 3.62198774 5.15377564 1 3 C0.67 3.99 0.34 4.98 0 6 C-1.24546405 3.50907189 -0.7767578 2.58919267 0 0 Z " fill="#F0F2F5" transform="translate(94,187)"/>
<path d="M0 0 C1.3805087 3.76668598 0.59568159 6.44789173 -0.4375 10.25 C-0.72496094 11.32765625 -1.01242187 12.4053125 -1.30859375 13.515625 C-1.53675781 14.33546875 -1.76492188 15.1553125 -2 16 C-2.33 16 -2.66 16 -3 16 C-3.33266291 9.79029227 -2.45029331 5.71735105 0 0 Z " fill="#A2B6E8" transform="translate(307,200)"/>
<path d="M0 0 C0.33 0.99 0.66 1.98 1 3 C-1.97 6.3 -4.94 9.6 -8 13 C-8.66 12.67 -9.32 12.34 -10 12 C-9.44570312 11.38511719 -8.89140625 10.77023437 -8.3203125 10.13671875 C-7.59585938 9.32847656 -6.87140625 8.52023437 -6.125 7.6875 C-5.40570313 6.88699219 -4.68640625 6.08648437 -3.9453125 5.26171875 C-1.88394498 2.95810917 -1.88394498 2.95810917 0 0 Z " fill="#E5E8F0" transform="translate(236,254)"/>
<path d="M0 0 C2.55934601 1.279673 2.6989233 2.24201036 3.6875 4.875 C3.95949219 5.57367188 4.23148437 6.27234375 4.51171875 6.9921875 C5 9 5 9 4 12 C0.81076967 7.81413519 -0.50423019 5.29441695 0 0 Z " fill="#B3C4EE" transform="translate(63,248)"/>
<path d="M0 0 C3.39417765 3.12621626 5.6062718 5.56541027 7 10 C3.64501065 8.61172854 1.84949545 7.14414226 0 4 C0 2.68 0 1.36 0 0 Z " fill="#AABDEB" transform="translate(281,83)"/>
<path d="M0 0 C3.21043882 1.38188453 5.04936365 2.92421903 7.25 5.625 C8.03117187 6.57246094 8.03117187 6.57246094 8.828125 7.5390625 C9.40820312 8.26222656 9.40820312 8.26222656 10 9 C7 9 7 9 5.17578125 7.28515625 C4.56089844 6.55167969 3.94601563 5.81820313 3.3125 5.0625 C2.68988281 4.33160156 2.06726563 3.60070312 1.42578125 2.84765625 C0 1 0 1 0 0 Z " fill="#D7DFF3" transform="translate(107,255)"/>
<path d="M0 0 C0 0.66 0 1.32 0 2 C-1.26607607 2.53229326 -2.53810412 3.05044544 -3.8125 3.5625 C-4.52019531 3.85253906 -5.22789062 4.14257812 -5.95703125 4.44140625 C-8 5 -8 5 -11 4 C-9.73308493 3.32591692 -8.46129251 2.66099503 -7.1875 2 C-6.47980469 1.62875 -5.77210938 1.2575 -5.04296875 0.875 C-3 0 -3 0 0 0 Z " fill="#446CCD" transform="translate(262,190)"/>
<path d="M0 0 C0.75 1.625 0.75 1.625 1 4 C-0.8125 7.25 -0.8125 7.25 -3 10 C-3.66 10 -4.32 10 -5 10 C-3.66511872 6.40608886 -2.03977277 3.24509304 0 0 Z " fill="#EBEEF2" transform="translate(94,144)"/>
<path d="M0 0 C2.74277578 3.19990508 4.6302836 6.00499382 6 10 C3 9 3 9 1.3125 6.6875 C0 4 0 4 0 0 Z " fill="#B5C6ED" transform="translate(57,238)"/>
<path d="M0 0 C1.93166016 0.01740234 1.93166016 0.01740234 3.90234375 0.03515625 C5.19269531 0.04417969 6.48304688 0.05320313 7.8125 0.0625 C8.81152344 0.07410156 9.81054688 0.08570313 10.83984375 0.09765625 C10.83984375 0.42765625 10.83984375 0.75765625 10.83984375 1.09765625 C9.99679688 1.14664063 9.15375 1.195625 8.28515625 1.24609375 C7.18945312 1.32085937 6.09375 1.395625 4.96484375 1.47265625 C3.32902344 1.57707031 3.32902344 1.57707031 1.66015625 1.68359375 C-1.29062099 1.83019116 -1.29062099 1.83019116 -3.16015625 4.09765625 C-3.49015625 3.10765625 -3.82015625 2.11765625 -4.16015625 1.09765625 C-3.16015625 0.09765625 -3.16015625 0.09765625 0 0 Z " fill="#FAFAFB" transform="translate(164.16015625,132.90234375)"/>
<path d="M0 0 C0.99 0 1.98 0 3 0 C2.34 2.97 1.68 5.94 1 9 C0.67 9 0.34 9 0 9 C0 6.03 0 3.06 0 0 Z " fill="#97AADD" transform="translate(237,228)"/>
<path d="M0 0 C3.0916909 2.52956528 3.90931332 5.22454612 5 9 C4.34 9 3.68 9 3 9 C0.56839395 5.63316085 0 4.26649636 0 0 Z " fill="#BCCCED" transform="translate(249,157)"/>
<path d="M0 0 C3.0916909 2.52956528 3.90931332 5.22454612 5 9 C4.34 9 3.68 9 3 9 C0.56839395 5.63316085 0 4.26649636 0 0 Z " fill="#B4C4ED" transform="translate(288,93)"/>
</svg>
